<?xml version="1.0"?>
<svg xmlns="http://www.w3.org/2000/svg" xmlns:xlink="http://www.w3.org/1999/xlink" version="1.1" id="Capa_1" x="0px" y="0px" viewBox="0 0 468.28 468.28" style="enable-background:new 0 0 468.28 468.28;" xml:space="preserve" width="512px" height="512px" class=""><g><rect x="300.138" y="301.792" transform="matrix(-0.7071 0.7071 -0.7071 -0.7071 780.7016 323.3457)" style="fill:#64798A;" width="46.492" height="43.139" data-original="#64798A" class=""/><circle style="fill:#D7D7D7" cx="185.807" cy="185.806" r="185.806" data-original="#D5D6DB" class="" data-old_color="#D5D6DB"/><ellipse style="fill:#EBF0F3;" cx="185.81" cy="185.81" rx="156.078" ry="156.078" data-original="#EBF0F3" class=""/><path style="fill:#41B883" d="M452.334,389.517l-87.646-73.467c-2.431-2.038-6.017-1.881-8.26,0.363l-40.015,40.015  c-2.243,2.243-2.401,5.829-0.363,8.26l73.467,87.646c16.811,20.056,47.197,21.389,65.702,2.885  C473.723,436.715,472.389,406.328,452.334,389.517z" data-original="#44C4A1" class="" data-old_color="#44C4A1"/><path style="fill:#34495E" d="M126.861,255.404V137.136c0-2.698,1.733-5.091,4.296-5.932l115.05-37.774  c4.038-1.326,8.192,1.682,8.192,5.932v156.042h-18.702v-115.51c0-4.291-4.229-7.303-8.284-5.901l-77.648,26.851  c-2.516,0.87-4.203,3.239-4.203,5.901v88.659H126.861z" data-original="#2D93BA" class="" data-old_color="#2D93BA"/><g>
	
		<ellipse transform="matrix(-0.3119 -0.9501 0.9501 -0.3119 -88.7761 451.737)" style="fill:#34495E" cx="119.2" cy="258.017" rx="22.26" ry="27.523" data-original="#27A2DB" class="active-path" data-old_color="#27A2DB"/>
	
		<ellipse transform="matrix(-0.3119 -0.9501 0.9501 -0.3119 53.1906 554.5558)" style="fill:#34495E" cx="227.417" cy="258.016" rx="22.26" ry="27.523" data-original="#27A2DB" class="active-path" data-old_color="#27A2DB"/>
</g></g> </svg>
